<svg overflow="hidden" viewBox="70.49 788.13 2070.49 693.87"
     xml:space="preserve" xmlns="http://www.w3.org/2000/svg"><g transform="translate(-1079 -117)"><path d="M150.546 880.246C119.612 885.058 92.1147 898.462 70.4609 917.023 81.116 913.586 92.1147 910.836 103.457 908.774 212.758 891.244 316.215 962.736 334.431 1068.6 334.775 1069.97 334.775 1071.01 335.119 1072.04 340.275 1052.1 341.306 1030.79 337.525 1009.14 322.402 923.897 238.88 865.81 150.546 880.246" fill="#C41230" transform="matrix(1.00045 0 0 1 1079 117)"/><path
        d="M339.243 860.998C310.372 837.969 276.688 824.564 241.973 820.096 253.659 826.627 264.658 833.845 275.313 842.094 377.739 923.21 392.862 1069.63 308.997 1168.96 307.966 1169.99 306.935 1171.03 306.247 1172.4 328.932 1161.06 349.211 1145.25 366.397 1124.97 434.452 1044.88 422.078 926.647 339.243 860.998"
        fill="#C41230" transform="matrix(1.00045 0 0 1 1079 117)"/><path
        d="M415.891 788.131C429.64 817.003 439.951 848.28 445.45 881.62 469.51 1021.17 407.642 1155.21 297.654 1233.58 438.576 1210.21 533.784 1080.97 510.412 944.176 499.413 879.902 464.355 825.595 415.891 788.131"
        fill="#C41230" transform="matrix(1.00045 0 0 1 1079 117)"/><path
        d="M576.748 909.461C579.842 1089.57 446.481 1249.39 257.784 1279.64 221.694 1285.48 185.948 1286.17 151.577 1282.39 208.633 1311.6 275.657 1323.98 344.399 1312.98 510.756 1286.17 623.149 1133.9 595.309 973.048 591.528 950.363 584.997 929.396 576.748 909.461"
        fill="#C41230" transform="matrix(1.00045 0 0 1 1079 117)"/><path
        d="M1401.31 1319.85C1394.44 1319.85 1272.76 1319.85 1272.76 1319.85L1272.76 978.547C1272.76 952.425 1270.7 942.801 1261.42 936.958 1255.58 932.833 1228.77 932.833 1217.77 932.833L1222.93 917.71 1362.47 917.71C1445.65 915.648 1504.43 931.115 1514.74 998.826 1521.27 1041.1 1493.77 1082.69 1436.03 1096.44 1530.2 1108.47 1545.33 1171.37 1545.33 1199.9 1545.67 1264.86 1507.86 1318.13 1401.31 1319.85M1363.16 936.271 1334.98 936.271 1334.98 1092.32 1375.53 1092.32C1420.9 1092.32 1449.09 1075.13 1449.09 1010.86 1449.09 947.957 1413 937.645 1363.16 936.271M1374.16 1108.47 1334.98 1108.47 1334.98 1251.8C1335.66 1266.92 1333.6 1288.23 1340.82 1293.39 1344.6 1296.82 1359.72 1302.67 1381.72 1302.67 1461.81 1302.67 1476.93 1262.8 1476.93 1207.46 1477.27 1157.96 1455.96 1109.5 1374.16 1108.47"
        fill="#6A737B" transform="matrix(1.00045 0 0 1 1079 117)"/><path
        d="M1818.92 1172.4 1643.63 1172.4C1637.79 1246.3 1676.97 1304.73 1734.03 1304.73 1783.18 1304.73 1811.36 1277.58 1811.36 1277.58L1815.14 1294.42C1815.14 1294.42 1784.55 1329.48 1710.31 1326.73 1644.32 1324.32 1577.98 1273.45 1582.79 1178.93 1585.89 1120.16 1626.44 1036.98 1713.4 1036.98 1797.27 1036.98 1820.98 1098.85 1820.98 1149.72 1820.98 1163.46 1818.92 1172.4 1818.92 1172.4M1712.03 1055.88C1686.94 1055.88 1652.57 1076.85 1645.35 1151.78L1747.09 1151.78C1763.58 1151.78 1763.24 1151.09 1763.24 1133.22 1763.24 1094.72 1749.84 1055.88 1712.03 1055.88"
        fill="#6A737B" transform="matrix(1.00045 0 0 1 1079 117)"/><path
        d="M1977.72 1318.13 1881.13 1318.13 1881.13 968.236C1881.13 947.957 1875.63 939.364 1864.98 934.896 1857.42 931.802 1839.55 929.74 1829.92 929.74L1835.08 917.71 1934.75 917.71 1934.75 1259.36C1934.75 1284.11 1941.28 1294.76 1951.25 1300.95 1957.78 1303.7 1971.87 1306.1 1981.84 1306.1L1977.72 1318.13Z"
        fill="#6A737B" transform="matrix(1.00045 0 0 1 1079 117)"/><path
        d="M2128.26 1318.13 2031.68 1318.13 2031.68 968.236C2031.68 947.957 2026.18 939.364 2015.53 934.896 2007.96 931.802 1990.09 929.74 1980.47 929.74L1985.62 917.71 2085.64 917.71 2085.64 1259.36C2085.64 1284.11 2092.17 1294.76 2102.14 1300.95 2108.67 1303.7 2122.76 1306.1 2132.73 1306.1L2128.26 1318.13Z"
        fill="#6A737B" transform="matrix(1.00045 0 0 1 1079 117)"/><path
        d="M961.705 1265.55C961.705 1265.55 935.583 1198.52 909.805 1126.34 880.246 1043.85 837.969 917.71 837.969 917.71L786.412 917.71 646.865 1282.04C639.304 1298.89 626.93 1303.01 606.995 1303.01L602.87 1316.42 702.89 1316.42 707.359 1303.01C707.359 1303.01 681.58 1302.32 676.768 1298.2 670.925 1293.04 671.956 1282.39 680.549 1260.05L714.233 1169.31 866.153 1169.31 914.273 1316.42 1010.51 1316.42 1014.98 1303.01C991.264 1303.01 973.735 1297.51 961.705 1265.55M721.795 1144.9C721.795 1144.9 781.944 998.139 795.349 964.455 809.441 1000.89 856.873 1144.9 856.873 1144.9L721.795 1144.9Z"
        fill="#6A737B" transform="matrix(1.00045 0 0 1 1079 117)"/><path
        d="M1149.37 1285.83C1149.37 1374.16 1110.19 1422.62 1030.45 1424 1025.29 1424 1020.48 1423.65 1017.39 1423.65L1011.89 1407.5C1027.7 1409.91 1042.82 1407.84 1056.91 1400.28 1068.94 1394.09 1083.04 1379.66 1084.75 1345.29 1086.82 1312.98 1085.44 1276.55 1085.44 1237.71L1085.44 978.203C1085.44 952.081 1083.38 942.457 1073.76 936.614 1067.91 932.49 1041.1 932.49 1030.1 932.49L1035.26 917.366 1149.72 917.366 1149.37 1285.83Z"
        fill="#6A737B" transform="matrix(1.00045 0 0 1 1079 117)"/><text fill="#D50032"
                                                                         font-family="Libre Caslon Text,Libre Caslon Text_MSFontService,sans-serif"
                                                                         font-size="110" font-weight="700"
                                                                         transform="matrix(1 0 0 1 2580.65 1570)">ShuttleBell</text></g></svg>